P2
24 7
105
3  6  9  9  6  3  7  14  21  21  14  7  11  22  33  33  22  11  15  30  45  45  30  15  
6  9  12  9  6  3  14  21  28  21  14  7  22  33  44  33  22  11  30  45  60  60  45  30  
9  15  21  15  9  3  21  35  49  35  21  7  33  55  77  55  33  11  45  75  105  105  75  45  
9  12  15  6  3  0  21  28  35  14  7  0  33  44  55  22  11  0  45  60  75  60  45  30  
9  12  15  6  3  0  21  35  49  35  21  7  33  55  77  55  33  11  45  60  75  45  30  15  
6  6  6  0  0  0  14  21  28  21  14  7  22  33  44  33  22  11  30  30  30  0  0  0  
3  3  3  0  0  0  7  14  21  21  14  7  11  22  33  33  22  11  15  15  15  0  0  0  
