P2
24 7
253
253  247  244  244  247  253  249  235  228  228  235  249  245  223  212  212  223  245  241  211  196  196  211  241  
253  250  253  0  0  0  249  242  249  0  0  0  245  234  245  0  0  0  241  226  241  241  226  241  
0  0  0  3  6  3  0  0  0  7  14  7  0  0  0  11  22  11  0  0  0  0  0  0  
0  0  0  0  0  0  0  0  0  0  0  0  0  0  0  0  0  0  0  0  0  15  30  15  
0  3  9  9  3  0  0  0  0  249  242  249  0  0  0  245  234  245  0  15  45  60  45  15  
3  6  3  0  0  0  7  14  7  0  0  0  11  22  11  0  0  0  15  30  15  0  0  0  
3  6  3  0  0  0  7  21  28  28  21  7  11  33  44  44  33  11  15  30  15  0  0  0  
