P2
24 7
150
3  9  12  12  9  3  7  21  28  28  21  7  11  33  44  44  33  11  15  45  60  60  45  15  
9  24  27  24  18  6  21  56  63  56  42  14  33  88  99  88  66  22  45  120  135  135  120  45  
12  30  30  21  12  3  28  70  70  49  28  7  44  110  110  77  44  11  60  150  150  150  150  60  
12  30  30  18  6  0  28  70  70  42  14  0  44  110  110  66  22  0  60  150  150  135  120  45  
12  27  21  9  3  0  28  70  70  49  28  7  44  110  110  77  44  11  60  135  105  60  45  15  
9  18  9  0  0  0  21  56  63  56  42  14  33  88  99  88  66  22  45  90  45  0  0  0  
3  6  3  0  0  0  7  21  28  28  21  7  11  33  44  44  33  11  15  30  15  0  0  0  
