P2
24 7
253
3  3  0  0  253  253  7  7  0  0  249  249  11  11  0  0  245  245  15  15  0  0  241  241  
9  6  253  0  250  250  21  14  249  0  242  242  33  22  245  0  234  234  45  30  241  15  226  211  
12  6  250  253  250  253  28  14  242  249  242  249  44  22  234  245  234  245  60  30  226  30  226  196  
12  6  250  250  250  0  28  14  242  242  242  0  44  22  234  234  234  0  60  30  226  15  226  211  
12  3  247  253  253  0  28  14  242  249  242  249  44  22  234  245  234  245  60  15  211  0  241  241  
9  0  247  0  0  0  21  14  249  0  242  242  33  22  245  0  234  234  45  0  211  0  0  0  
3  0  253  0  0  0  7  7  0  0  249  249  11  11  0  0  245  245  15  0  241  0  0  0  
